<?xml version="1.0" encoding="utf-8"?>
<svg id="master-artboard" viewBox="0 0 261.6150817871094 273.1176452636719" xmlns="http://www.w3.org/2000/svg" width="261.6150817871094px" height="273.1176452636719px"><rect id="ee-background" x="0" y="0" width="261.6150817871094" height="273.1176452636719" style="fill: white; fill-opacity: 0; pointer-events: none;" transform="matrix(1, 0, 0, 1, 0, -1)"/><path d="M 261.52679443359375 32.546512603759766 C 222.7446746826172 16.338237762451172 180.1846923828125 9.920841217041016 110.36939239501953 34.142478942871094 C 40.55409240722656 58.36411666870117 87.57256317138672 102.5329818725586 87.57256317138672 102.5329818725586 C 87.57256317138672 102.5329818725586 121.05540466308594 138.8654327392578 93.98416900634766 167.36148071289062 C 66.91293334960938 195.85752868652344 59.78892517089844 222.21636962890625 70.47493743896484 235.75198364257812 C 81.16094970703125 249.28759765625 163.7994842529297 284.90765380859375 215.0923614501953 277.78363037109375 C 247.61863708496094 273.2660827636719 264.48094523624616 251.0152241988523 261.14459228515625 229.33853149414062 C 257.01950051412314 202.53730616080657 242.14215087890625 206.6353302001953 242.87599182128906 175.91029357910156 C 243.71701873036744 140.69750959780316 250 136.7282257080078 273.5092468261719 100.3957748413086 C 297.01849365234375 64.06332397460938 273.47265451184995 37.53906547625502 261.52679443359375 32.546512603759766 Z" style="fill: rgb(222, 247, 229); fill-opacity: 1; stroke: rgb(222, 247, 229); stroke-opacity: 1; stroke-width: 10; paint-order: fill;" transform="matrix(1, 0, 0, 1, -52.49650835990906, -11.963887214660645)"/><path d="M 71.18733978271484 123.19261169433594 C 71.18733978271484 123.19261169433594 49.102901458740234 135.3034210205078 60.501319885253906 148.12664794921875 C 71.89973831176758 160.9498748779297 79.73614501953125 154.5382537841797 79.73614501953125 154.5382537841797 C 79.73614501953125 154.5382537841797 96.12136840820312 127.4670181274414 71.18733978271484 123.19261169433594 Z" style="fill: rgb(222, 247, 229); fill-opacity: 1; stroke: rgb(222, 247, 229); stroke-opacity: 1; stroke-width: 10; paint-order: stroke;" transform="matrix(1, 0, 0, 1, -52.49650835990906, -11.963887214660645)"/><path d="M 269.2348327636719 152.40106201171875 C 269.2348327636719 152.40106201171875 258.5487976074219 178.04751586914062 263.5356140136719 197.28233337402344 C 268.5224304199219 216.51715087890625 281.5681457558656 216.02726742967542 292.03167724609375 207.9683380126953 C 302.4952087402344 199.90940856933594 309.8416748046875 183.7467041015625 300.5804748535156 150.97625732421875 C 291.31927490234375 118.205810546875 269.9472351074219 150.97625732421875 269.2348327636719 152.40106201171875 Z" style="fill: rgb(222, 247, 229); fill-opacity: 1; stroke: rgb(222, 247, 229); stroke-opacity: 1; stroke-width: 10; paint-order: stroke;" transform="matrix(1, 0, 0, 1, -51.07170748710632, -22.649903297424316)"/><path d="M 255.69921875 227.2031707763672" style="fill: rgb(222, 247, 229); fill-opacity: 1; stroke: rgb(222, 247, 229); stroke-opacity: 1; stroke-width: 10; paint-order: stroke;" transform="matrix(1, 0, 0, 1, -52.49650835990906, -11.963887214660645)"/><path d="M 190.027099609375 43.480865478515625" style="fill-opacity: 1; stroke: rgb(0, 0, 0); stroke-opacity: 1; stroke-width: 10; paint-order: fill;" transform="matrix(1, 0, 0, 1, -2.83197283744812, 5.663945198059082)"/></svg>