<?xml version="1.0" encoding="utf-8"?>
<svg id="master-artboard" viewBox="0 0 248.76133728027344 272.4749450683594" xmlns="http://www.w3.org/2000/svg" width="248.76133728027344px" height="272.4749450683594px"><rect id="ee-background" x="0" y="0" width="248.76133728027344" height="272.4749450683594" style="fill: white; fill-opacity: 0; pointer-events: none;" transform="matrix(1, 0, 0, 1, 0, -1)"/><path d="M 255.69921875 227.2031707763672" style="fill: rgb(222, 247, 229); fill-opacity: 1; stroke: rgb(222, 247, 229); stroke-opacity: 1; stroke-width: 10; paint-order: stroke;" transform="matrix(1, 0, 0, 1, -52.49650835990906, -11.963887214660645)"/><path d="M 190.027099609375 43.480865478515625" style="fill-opacity: 1; stroke: rgb(0, 0, 0); stroke-opacity: 1; stroke-width: 10; paint-order: fill;" transform="matrix(1, 0, 0, 1, -2.83197283744812, 5.663945198059082)"/><g transform="matrix(0.9387519955635071, 0, 0, 0.9387519955635071, -97.94753430970638, -21.343822428957864)"><path d="M 222.92877197265625 29.15567398071289 C 222.92877197265625 29.15567398071289 150.97625732421875 31.292869567871094 132.45382690429688 67.62532806396484 C 113.931396484375 103.9577865600586 111.08179473876953 158.1002655029297 111.79419708251953 158.1002655029297 C 112.22740936279297 158.1002655029297 109.58464813232422 195.352783203125 117.49747467041016 223.43426513671875 C 122.5969467163086 241.5315399169922 139.5778350830078 254.98681640625 139.5778350830078 254.98681640625 C 139.5778350830078 254.98681640625 158.7581024169922 268.29058837890625 181.2145233154297 270.84991455078125 C 200.09597778320312 273.00177001953125 220.8759765625 264.217529296875 238.64442443847656 266.55023193359375 C 259.8568420410156 269.3350524902344 278.268310546875 284.9486999511719 296.3471984863281 291.6504821777344 C 316.6998291015625 299.19512939453125 346.17413330078125 266.38519287109375 346.17413330078125 266.38519287109375 C 346.17413330078125 266.38519287109375 355.30322265625 253.86331176757812 360.6863098144531 239.11285400390625 C 363.1197204589844 232.4449462890625 362.55926513671875 225.74757385253906 358.8853454589844 215.09759521484375 C 357.06011962890625 209.8065948486328 358.2223815917969 205.686279296875 351.16094970703125 195.85752868652344 C 298.4432678222656 122.48019409179688 311.3531494140625 131.06387329101562 321.2401123046875 106.8073959350586 C 324.86689591855554 97.90951742798299 327.3180973022196 93.7054450401338 330.5571594238281 82.1625747680664 C 332.4298095703125 75.4891128540039 332.0548400878906 67.59830474853516 328.79180908203125 61.8072624206543 C 316.12451171875 39.3262825012207 289.1640319824219 26.10536766052246 222.92877197265625 29.15567398071289 Z" style="fill: rgb(222, 247, 229); fill-opacity: 1; stroke: rgb(222, 247, 229); stroke-opacity: 1; stroke-width: 10; paint-order: fill;"/><path style="fill: rgb(222, 247, 229); fill-opacity: 1; stroke: rgb(222, 247, 229); stroke-opacity: 1; stroke-width: 10; paint-order: stroke;"/><path style="fill: rgb(222, 247, 229); fill-opacity: 1; stroke: rgb(222, 247, 229); stroke-opacity: 1; stroke-width: 10; paint-order: stroke;"/><path style="fill: rgb(222, 247, 229); fill-opacity: 1; stroke: rgb(222, 247, 229); stroke-opacity: 1; stroke-width: 10; paint-order: stroke;"/><path style="fill: rgb(222, 247, 229); fill-opacity: 1; stroke: rgb(222, 247, 229); stroke-opacity: 1; stroke-width: 10; paint-order: stroke;"/><path style="fill: rgb(222, 247, 229); fill-opacity: 1; stroke: rgb(222, 247, 229); stroke-opacity: 1; stroke-width: 10; paint-order: stroke;"/><path style="fill: rgb(222, 247, 229); fill-opacity: 1; stroke: rgb(222, 247, 229); stroke-opacity: 1; stroke-width: 10; paint-order: stroke;"/><path d="M 235.75198364257812 283.48284912109375 C 235.75198364257812 283.48284912109375 217.2295684814453 281.3456726074219 212.2427520751953 291.31927490234375 C 207.2559356689453 301.2928771972656 237.17678833007812 307.7044982910156 247.15040588378906 306.2796936035156 C 257.1240234375 304.8548889160156 263.53564453125 290.6068420410156 235.75198364257812 283.48284912109375 Z" style="fill: rgb(222, 247, 229); fill-opacity: 1; stroke: rgb(222, 247, 229); stroke-opacity: 1; stroke-width: 10; paint-order: stroke;"/><path style="fill: rgb(222, 247, 229); fill-opacity: 1; stroke: rgb(222, 247, 229); stroke-opacity: 1; stroke-width: 10; paint-order: stroke;"/><path style="fill: rgb(222, 247, 229); fill-opacity: 1; stroke: rgb(222, 247, 229); stroke-opacity: 1; stroke-width: 10; paint-order: stroke;"/><path d="M 383.218994140625 103.2453842163086" style="fill: rgb(222, 247, 229); fill-opacity: 1; stroke: rgb(222, 247, 229); stroke-opacity: 1; stroke-width: 10; paint-order: stroke;"/><path style="fill: rgb(222, 247, 229); fill-opacity: 1; stroke: rgb(222, 247, 229); stroke-opacity: 1; stroke-width: 10; paint-order: stroke;"/><path style="fill: rgb(222, 247, 229); fill-opacity: 1; stroke: rgb(222, 247, 229); stroke-opacity: 1; stroke-width: 10; paint-order: stroke;"/><path style="fill: rgb(222, 247, 229); fill-opacity: 1; stroke: rgb(222, 247, 229); stroke-opacity: 1; stroke-width: 10; paint-order: stroke;"/><path d="M 388.205810546875 103.9577865600586" style="fill: rgb(222, 247, 229); fill-opacity: 1; stroke: rgb(222, 247, 229); stroke-opacity: 1; stroke-width: 10; paint-order: stroke;"/><path d="M 365.4089660644531 133.16622924804688" style="fill: rgb(222, 247, 229); fill-opacity: 1; stroke: rgb(222, 247, 229); stroke-opacity: 1; stroke-width: 10; paint-order: stroke;"/><path d="M 344.0369567871094 133.16622924804688" style="fill: rgb(222, 247, 229); fill-opacity: 1; stroke: rgb(222, 247, 229); stroke-opacity: 1; stroke-width: 10; paint-order: stroke;"/></g></svg>