<?xml version="1.0" encoding="utf-8"?>
<svg id="master-artboard" viewBox="0 0 323.5074157714844 272.4749450683594" xmlns="http://www.w3.org/2000/svg" width="323.5074157714844px" height="272.4749450683594px"><rect id="ee-background" x="0" y="0" width="323.5074157714844" height="272.4749450683594" style="fill: white; fill-opacity: 0; pointer-events: none;" transform="matrix(1, 0, 0, 1, 0, -1)"/><path d="M 255.69921875 227.2031707763672" style="fill: rgb(222, 247, 229); fill-opacity: 1; stroke: rgb(222, 247, 229); stroke-opacity: 1; stroke-width: 10; paint-order: stroke;" transform="matrix(1, 0, 0, 1, -52.49650835990906, -11.963887214660645)"/><path d="M 190.027099609375 43.480865478515625" style="fill-opacity: 1; stroke: rgb(0, 0, 0); stroke-opacity: 1; stroke-width: 10; paint-order: fill;" transform="matrix(1, 0, 0, 1, -2.83197283744812, 5.663945198059082)"/><g transform="matrix(1.0877400636672971, 0, 0, 0.9387522339820862, -115.68290249781073, -21.708437337730544)"><path d="M 222.92877197265625 29.15567398071289 C 222.92877197265625 29.15567398071289 150.97625732421875 31.292869567871094 132.45382690429688 67.62532806396484 C 113.931396484375 103.9577865600586 111.08179473876953 158.1002655029297 111.79419708251953 158.1002655029297 C 112.22740936279297 158.1002655029297 109.58464813232422 195.352783203125 117.49747467041016 223.43426513671875 C 122.5969467163086 241.5315399169922 139.5778350830078 254.98681640625 139.5778350830078 254.98681640625 C 139.5778350830078 254.98681640625 158.7581024169922 268.29058837890625 181.2145233154297 270.84991455078125 C 200.09597778320312 273.00177001953125 220.8759765625 264.217529296875 238.64442443847656 266.55023193359375 C 259.8568420410156 269.3350524902344 277.25416135685464 284.13624211182815 295.4599304199219 290.4852600097656 C 316.14145897849727 297.6976603060821 335.83283816819943 275.5511193228261 339.07586669921875 271.4344482421875 C 345.5364277138972 263.2335093134879 350.04128904225695 254.0206374438039 353.58807373046875 238.7244415283203 C 355.1341857910156 232.05653381347656 354.6376663177924 227.49752112034096 352.97015380859375 218.20480346679688 C 351.7102966308594 211.18386840820312 349.3320617675781 204.34547424316406 341.6966247558594 196.24594116210938 C 315.69243664992695 168.66117011538216 306.98138427734375 139.26571655273438 317.3952331542969 106.8073959350586 C 319.8823718853783 99.05537770357259 324.0647098510477 93.7054450401338 327.30377197265625 82.1625747680664 C 329.1764221191406 75.4891128540039 328.2099609375 67.59830474853516 324.9469299316406 61.8072624206543 C 312.2796325683594 39.3262825012207 289.1640319824219 26.10536766052246 222.92877197265625 29.15567398071289 Z" style="fill: rgb(222, 247, 229); fill-opacity: 1; stroke: rgb(222, 247, 229); stroke-opacity: 1; stroke-width: 10; paint-order: fill;" transform="matrix(1.1333629657572486, 0, 0, 1, -14.896259278630225, 0)"/><path style="fill: rgb(222, 247, 229); fill-opacity: 1; stroke: rgb(222, 247, 229); stroke-opacity: 1; stroke-width: 10; paint-order: stroke;"/><path style="fill: rgb(222, 247, 229); fill-opacity: 1; stroke: rgb(222, 247, 229); stroke-opacity: 1; stroke-width: 10; paint-order: stroke;"/><path style="fill: rgb(222, 247, 229); fill-opacity: 1; stroke: rgb(222, 247, 229); stroke-opacity: 1; stroke-width: 10; paint-order: stroke;"/><path style="fill: rgb(222, 247, 229); fill-opacity: 1; stroke: rgb(222, 247, 229); stroke-opacity: 1; stroke-width: 10; paint-order: stroke;"/><path style="fill: rgb(222, 247, 229); fill-opacity: 1; stroke: rgb(222, 247, 229); stroke-opacity: 1; stroke-width: 10; paint-order: stroke;"/><path style="fill: rgb(222, 247, 229); fill-opacity: 1; stroke: rgb(222, 247, 229); stroke-opacity: 1; stroke-width: 10; paint-order: stroke;"/><path d="M 235.75198364257812 283.48284912109375 C 235.75198364257812 283.48284912109375 217.2295684814453 281.3456726074219 212.2427520751953 291.31927490234375 C 207.2559356689453 301.2928771972656 237.17678833007812 307.7044982910156 247.15040588378906 306.2796936035156 C 257.1240234375 304.8548889160156 263.53564453125 290.6068420410156 235.75198364257812 283.48284912109375 Z" style="fill: rgb(222, 247, 229); fill-opacity: 1; stroke: rgb(222, 247, 229); stroke-opacity: 1; stroke-width: 10; paint-order: stroke;" transform="matrix(1.2258250713348389, 0, 0, 0.9999999999999999, -36.353982775886294, -0.7768073330415106)"/><path style="fill: rgb(222, 247, 229); fill-opacity: 1; stroke: rgb(222, 247, 229); stroke-opacity: 1; stroke-width: 10; paint-order: stroke;"/><path style="fill: rgb(222, 247, 229); fill-opacity: 1; stroke: rgb(222, 247, 229); stroke-opacity: 1; stroke-width: 10; paint-order: stroke;"/><path d="M 383.218994140625 103.2453842163086" style="fill: rgb(222, 247, 229); fill-opacity: 1; stroke: rgb(222, 247, 229); stroke-opacity: 1; stroke-width: 10; paint-order: stroke;"/><path style="fill: rgb(222, 247, 229); fill-opacity: 1; stroke: rgb(222, 247, 229); stroke-opacity: 1; stroke-width: 10; paint-order: stroke;"/><path style="fill: rgb(222, 247, 229); fill-opacity: 1; stroke: rgb(222, 247, 229); stroke-opacity: 1; stroke-width: 10; paint-order: stroke;"/><path style="fill: rgb(222, 247, 229); fill-opacity: 1; stroke: rgb(222, 247, 229); stroke-opacity: 1; stroke-width: 10; paint-order: stroke;"/><path d="M 388.205810546875 103.9577865600586" style="fill: rgb(222, 247, 229); fill-opacity: 1; stroke: rgb(222, 247, 229); stroke-opacity: 1; stroke-width: 10; paint-order: stroke;"/><path d="M 365.4089660644531 133.16622924804688" style="fill: rgb(222, 247, 229); fill-opacity: 1; stroke: rgb(222, 247, 229); stroke-opacity: 1; stroke-width: 10; paint-order: stroke;"/><path d="M 344.0369567871094 133.16622924804688" style="fill: rgb(222, 247, 229); fill-opacity: 1; stroke: rgb(222, 247, 229); stroke-opacity: 1; stroke-width: 10; paint-order: stroke;"/><path d="M 398.0285949707031 151.74375915527344" style="fill: rgb(222, 247, 229); fill-opacity: 1; stroke: rgb(222, 247, 229); stroke-opacity: 1; stroke-width: 10; paint-order: stroke;"/><path style="fill: rgb(222, 247, 229); fill-opacity: 1; stroke: rgb(222, 247, 229); stroke-opacity: 1; stroke-width: 10; paint-order: stroke;"/></g></svg>